<?xml version="1.0" encoding="utf-8"?>
<!-- Generator: Adobe Illustrator 15.0.0, SVG Export Plug-In . SVG Version: 6.00 Build 0)  -->
<!DOCTYPE svg PUBLIC "-//W3C//DTD SVG 1.1//EN" "http://www.w3.org/Graphics/SVG/1.1/DTD/svg11.dtd">
<svg version="1.1" id="Layer_1" xmlns="http://www.w3.org/2000/svg" xmlns:xlink="http://www.w3.org/1999/xlink" x="0px" y="0px"
	 width="124.307px" height="60.018px" viewBox="0 0 124.307 60.018" enable-background="new 0 0 124.307 60.018"
	 xml:space="preserve">
<polygon fill="#FFFFFF" stroke="#303030" stroke-width="0.5" stroke-linecap="square" stroke-miterlimit="10" points="
	121.51,24.141 122.328,17.195 68.916,0 41.382,7.437 31.974,29.178 "/>
<polygon fill="#C9C9C9" stroke="#2D2D2D" stroke-width="0.5" stroke-linejoin="bevel" stroke-miterlimit="10" points="
	120.513,24.229 121.512,24.229 123.474,31.666 27.7,30.418 0,20.496 20.532,15.037 113.599,21.255 "/>
<polygon fill="#E5E5E5" stroke="#333333" stroke-width="0.5" stroke-linejoin="bevel" stroke-miterlimit="10" points="
	124.307,32.902 40.877,60.018 27.7,30.418 120.677,24.47 "/>
<polygon fill="#E5E5E5" stroke="#282828" stroke-width="0.5" stroke-linejoin="bevel" stroke-miterlimit="10" points="
	106.174,26.46 84.724,46.345 70.729,28.767 "/>
<polygon fill="#E5E5E5" stroke="#282828" stroke-width="0.5" stroke-linejoin="bevel" stroke-miterlimit="10" points="
	91.833,43.983 80.785,48.282 80.117,47.448 74.358,35.044 74.196,34.228 "/>
<polygon fill="#C9C9C9" stroke="#2D2D2D" stroke-width="0.5" stroke-linejoin="bevel" stroke-miterlimit="10" points="
	113.678,21.168 108.561,25.124 106.253,26.464 70.808,28.768 66.198,27.771 20.532,15.037 36.077,16.08 37.668,16.2 39.481,16.305 
	"/>
</svg>
